# xmcd
#
# Track frame offsets: 
#        150
#        8340
#        28221
#        44081
#        59147
#        77839
#        82141
#        103185
#        120768
#        137484
#        155635
#        173965
#        191415
#        210573
#        224513
#        239221
#        254185
#        275550
#        291279
#
# Disc length: 4093 seconds
#
# Revision: 0
# Processed by: cddbd v1.5.1PL2 Copyright (c) Steve Scherf et al.
# Submitted via: ExactAudioCopy v0.95a5
#
DISCID=2b0ffb13
DTITLE=Spanky Loco - From the West 2
DYEAR=2006
DGENRE=Sureño Rap
TTITLE0=01 - Intro
TTITLE1=02 - From the West ft. Spanky Loco, Huero Snipes, Big Dice
TTITLE2=03 - Fuck Rap Riders ft. Spanky Loco, Huero Snipes
TTITLE3=04 - G-Izm ft, Spanky Loco Huero Snipes, Sylk E. Fine
TTITLE4=05 - How We Do It ft. 2 High
TTITLE5=06 - Skit
TTITLE6=07 - Marijuana ft. Spanky Loco, Huero Snipes, Ghost, Nasty Boy
TTITLE7=08 - Stop Handcuffin ft. Spanky Loco, Huero Snipes, Baby Wicke
TTITLE7=d, Blunts LLA
TTITLE8=09 - Its The Soldier ft. Soldier
TTITLE9=10 - Hoe! You Talk Too Much ft. Spanky Loco
TTITLE10=11 - City of Los ft. Spanky Loco, Huero Snipes, Assasin, Ghos
TTITLE10=t, Big Dice
TTITLE11=12 - Live by the Code ft. Spanky Loco, Deuce Mac, Lil C, Ghos
TTITLE11=t
TTITLE12=13 - Oh Why ft. Spanky Loco, Huero Snipes
TTITLE13=14 - Double OG ft. Popeye Loc, B.O.X
TTITLE14=15 - Cum Down ft. Spanky Loco, Huero Snipes
TTITLE15=16 - Get Whacked ft. Spanky Loco, Chingon
TTITLE16=17 - If We Were Gone Tomorrow ft. Spanky Loco, Huero Snipes, 
TTITLE16=Ghost, Kozme
TTITLE17=18 - My Ways (Remix) ft. Trippalot, Spanky Loco, Huero Snipes
TTITLE18=19 - Im A Hustla ft. Trippalot, Spanky Loco, Dinero
EXTD=
EXTT0=
EXTT1=
EXTT2=
EXTT3=
EXTT4=
EXTT5=
EXTT6=
EXTT7=
EXTT8=
EXTT9=
EXTT10=
EXTT11=
EXTT12=
EXTT13=
EXTT14=
EXTT15=
EXTT16=
EXTT17=
EXTT18=
PLAYORDER=
